<svg width="230" height="80" viewBox="0 0 230 80" fill="none" xmlns="http://www.w3.org/2000/svg">
<path d="M46.786 72.0518C40.1351 60.532 44.0821 45.8017 55.6019 39.1507L76.4603 27.1081C83.1113 38.6279 79.1643 53.3582 67.6445 60.0092L46.786 72.0518Z" fill="white"></path>
<path d="M25.0426 52.9434C18.3917 41.4236 22.3386 26.6933 33.8585 20.0423L54.7169 7.99969C61.3679 19.5195 57.4209 34.2498 45.9011 40.9008L25.0426 52.9434Z" fill="white"></path>
<path d="M207.114 30.3926C209.817 30.3926 211.985 31.182 213.618 32.761C215.25 34.3399 216.066 36.6815 216.066 39.7858V52.0693H211.048V40.4281C211.048 38.5548 210.607 37.1498 209.724 36.2132C208.841 35.2498 207.583 34.7681 205.95 34.7681C204.104 34.7681 202.645 35.3301 201.575 36.454C200.504 37.5513 199.969 39.1436 199.969 41.231V52.0693H194.951V30.6334H199.728V33.4032C200.558 32.4131 201.602 31.6637 202.859 31.1553C204.117 30.6468 205.536 30.3926 207.114 30.3926Z" fill="white"></path>
<path d="M189.184 30.6338V52.0697H184.407V49.34C183.605 50.3034 182.601 51.0528 181.397 51.588C180.192 52.0964 178.895 52.3507 177.503 52.3507C174.639 52.3507 172.378 51.5612 170.719 49.9823C169.086 48.3766 168.27 46.0082 168.27 42.8771V30.6338H173.288V42.1947C173.288 44.1215 173.716 45.5667 174.573 46.5301C175.456 47.4667 176.7 47.935 178.306 47.935C180.099 47.935 181.517 47.3864 182.561 46.2892C183.631 45.1652 184.167 43.5596 184.167 41.4722V30.6338H189.184Z" fill="white"></path>
<path d="M157.154 33.7645C158.599 31.5166 161.142 30.3926 164.781 30.3926V35.1695C164.353 35.0892 163.965 35.0491 163.617 35.0491C161.663 35.0491 160.138 35.6244 159.041 36.7752C157.944 37.8992 157.395 39.5316 157.395 41.6725V52.0693H152.377V30.6334H157.154V33.7645Z" fill="white"></path>
<path d="M141.296 33.7645C142.742 31.5166 145.284 30.3926 148.923 30.3926V35.1695C148.495 35.0892 148.107 35.0491 147.759 35.0491C145.806 35.0491 144.28 35.6244 143.183 36.7752C142.086 37.8992 141.537 39.5316 141.537 41.6725V52.0693H136.52V30.6334H141.296V33.7645Z" fill="white"></path>
<path d="M125.719 30.6339H130.736V52.0698H125.719V30.6339ZM128.248 27.1014C127.338 27.1014 126.575 26.8204 125.96 26.2584C125.344 25.6697 125.036 24.9471 125.036 24.0907C125.036 23.2344 125.344 22.5252 125.96 21.9632C126.575 21.3745 127.338 21.0801 128.248 21.0801C129.158 21.0801 129.92 21.3611 130.536 21.9231C131.151 22.4583 131.459 23.1407 131.459 23.9703C131.459 24.8534 131.151 25.6028 130.536 26.2183C129.947 26.807 129.184 27.1014 128.248 27.1014Z" fill="white"></path>
<path d="M119.956 30.6334V52.0693H115.179V49.2995C114.35 50.3165 113.32 51.0792 112.089 51.5876C110.884 52.0961 109.546 52.3503 108.074 52.3503C105.987 52.3503 104.114 51.8954 102.454 50.9855C100.822 50.0756 99.5374 48.791 98.6008 47.1318C97.6909 45.4726 97.236 43.5458 97.236 41.3514C97.236 39.1569 97.6909 37.2435 98.6008 35.6111C99.5374 33.9518 100.822 32.6673 102.454 31.7574C104.114 30.8475 105.987 30.3926 108.074 30.3926C109.466 30.3926 110.737 30.6334 111.888 31.1151C113.065 31.5968 114.082 32.306 114.939 33.2427V30.6334H119.956ZM108.636 48.0551C110.483 48.0551 112.008 47.4396 113.213 46.2086C114.417 44.9776 115.019 43.3585 115.019 41.3514C115.019 39.3443 114.417 37.7252 113.213 36.4942C112.008 35.2632 110.483 34.6476 108.636 34.6476C106.79 34.6476 105.264 35.2632 104.06 36.4942C102.883 37.7252 102.294 39.3443 102.294 41.3514C102.294 43.3585 102.883 44.9776 104.06 46.2086C105.264 47.4396 106.79 48.0551 108.636 48.0551Z" fill="white"></path>
</svg>